# xmcd
#
# Track frame offsets: 
#        150
#        15352
#        24040
#        34795
#        44517
#        58930
#        68367
#        79627
#        91435
#        100885
#        112557
#        124305
#        135842
#        145640
#        155310
#        165787
#        177685
#        189857
#        199052
#        211645
#
# Disc length: 2984 seconds
#
# Revision: 2
# Processed by: cddbd v1.5.2PL0 Copyright (c) Steve Scherf et al.
# Submitted via: ExactAudioCopy v0.99pb5
#
DISCID=ea0ba614
DTITLE=The Trashmen - Tube City! [The Best Of The Trashmen!]
DYEAR=1992
DGENRE=Surf Rock
TTITLE0=Tube City
TTITLE1=My Woodie
TTITLE2=Surfin' Bird
TTITLE3=Misirlou
TTITLE4=Money
TTITLE5=Kuk
TTITLE6=King Of The Surf
TTITLE7=Bird Bath
TTITLE8=It's So Easy
TTITLE9=Henrietta
TTITLE10=Malaguena
TTITLE11=Sleeper
TTITLE12=Bird Dance Beat
TTITLE13=A-Bone
TTITLE14=Bad News
TTITLE15=On The Move
TTITLE16=Peppermint Man
TTITLE17=New Generation
TTITLE18=Whoa, Dad!
TTITLE19=Real Live Doll [alternate version]
EXTD=
EXTT0=
EXTT1=
EXTT2=
EXTT3=
EXTT4=
EXTT5=
EXTT6=
EXTT7=
EXTT8=
EXTT9=
EXTT10=
EXTT11=
EXTT12=
EXTT13=
EXTT14=
EXTT15=
EXTT16=
EXTT17=
EXTT18=
EXTT19=
PLAYORDER=
